HIERARCHY
ROOT Hips
{
	OFFSET	0.00	0.00	0.00
	CHANNELS 6 Xposition Yposition Zposition Zrotation Xrotation Yrotation
	JOINT Spine
	{
		OFFSET	 0.00	0.01	 0.00
		CHANNELS 3 Zrotation Xrotation Yrotation
		JOINT Spine1
		{
			OFFSET	 0.00	 2.45913012437421	 0.00
			CHANNELS 3 Zrotation Xrotation Yrotation
            JOINT Neck
            {
                OFFSET	 0.00	 2.48462964506057	 0.00
                CHANNELS 3 Zrotation Xrotation Yrotation
                JOINT Head
                {
                    OFFSET	 0.00	 0.927524780924562	 0.00
                    CHANNELS 3 Zrotation Xrotation Yrotation
                    End Site 
                    {
                        OFFSET	 0.00	 1.14999962169752	 0.00
                    }
                }
            }
			JOINT LeftShoulder
			{
				OFFSET	 0.00	 2.48462964506057	 0.00
				CHANNELS 3 Zrotation Xrotation Yrotation
				JOINT LeftUpArm
				{
					OFFSET	 0.00	 1.24881979654096	 0.00
					CHANNELS 3 Zrotation Xrotation Yrotation
					JOINT LeftForeArm
					{
						OFFSET	 0.00	2.59758046908119	 0.00
						CHANNELS 3 Zrotation Xrotation Yrotation
						JOINT LeftHand
						{
							OFFSET	 0.00	2.45542024364365	 0.00
							CHANNELS 3 Zrotation Xrotation Yrotation
							JOINT LeftHandThumb 
							{
								OFFSET	 0.00	0.00	 0.00
								CHANNELS 3 Zrotation Xrotation Yrotation
								End Site
								{
									OFFSET	 0.00	0.00	1.00000003353624
								}
							}
							JOINT L_Wrist_End 
							{
								OFFSET	 0.00	0.99999967115358	 0.00
								CHANNELS 3 Zrotation Xrotation Yrotation
								End Site 
								{
									OFFSET	 0.00	 0.00	 0.00
								}
							}
						}
					}
				}
			}
			JOINT RightShoulder
			{
				OFFSET	 0.00	 2.48462964506057	 0.00
				CHANNELS 3 Zrotation Xrotation Yrotation
				JOINT RightUpArm
				{
					OFFSET	 0.00	 1.24881979654096	 0.00
					CHANNELS 3 Zrotation Xrotation Yrotation
					JOINT RightForeArm
					{
						OFFSET	 0.00	2.59758046908119	 0.00
						CHANNELS 3 Zrotation Xrotation Yrotation
						JOINT RightHand
						{
							OFFSET	 0.00	2.45542024364365	 0.00
							CHANNELS 3 Zrotation Xrotation Yrotation
							JOINT RightHandThumb 
							{
								OFFSET	 0.00	0.00	 0.00
								CHANNELS 3 Zrotation Xrotation Yrotation
								End Site
								{
									OFFSET	 0.00	0.00	1.00000003353624
								}
							}
							JOINT R_Wrist_End 
							{
								OFFSET	 0.00	0.99999967115358	 0.00
								CHANNELS 3 Zrotation Xrotation Yrotation
								End Site 
								{
									OFFSET	 0.00	 0.00	 0.00
								}
							}
						}
					}
				}
			}
		}
	}
	JOINT LeftUpLeg
	{
		OFFSET	 1.2719394002717	 0.00	 0.00
		CHANNELS 3 Zrotation Xrotation Yrotation
		JOINT LeftLowLeg
		{
			OFFSET	 0.00	-4.3429100912261	 0.00
			CHANNELS 3 Zrotation Xrotation Yrotation
			JOINT LeftFoot
			{
				OFFSET	 0.00	-4.48767017425826	 0.00
				CHANNELS 3 Zrotation Xrotation Yrotation
				JOINT LeftToeBase
                {
                    OFFSET	 0.00	0.00	 1.51507020887566
                    CHANNELS 3 Zrotation Xrotation Yrotation
                    End Site 
                    {
                        OFFSET	 0.00	0.00	 0.75000010571191
                    }
                }
			}
		}
	}
	JOINT RightUpLeg
	{
		OFFSET	 -1.2719393604653	 0.00	 0.00
		CHANNELS 3 Zrotation Xrotation Yrotation
		JOINT RightLowLeg
		{
			OFFSET	 0.00	-4.3429100912261	 0.00
			CHANNELS 3 Zrotation Xrotation Yrotation
			JOINT RightFoot
			{
				OFFSET	 0.00	-4.48767017425826	 0.00
				CHANNELS 3 Zrotation Xrotation Yrotation
				JOINT RightToeBase
                {
                    OFFSET	 0.00	0.00	 1.51507020887566
                    CHANNELS 3 Zrotation Xrotation Yrotation
                    End Site 
                    {
                        OFFSET	 0.00	0.00	 0.749999965609858
                    }
                }   
			}
		}
	}
}
MOTION 
Frames:	13 
Frame Time: 0.02 
  2.6914898681640627 0.18082300186157227 7.430449829101563 -26.2412 78.8792 31.8529 10.8057 43.7466 -18.6951 3.04247 -9.71789 11.4725 -52.8543 39.2451 40.5301 152.47 -59.8746 870.08 -94.89414 24.108 14.0794 -78.4489 36.8186 17.0705 0.0 -5.63791 0.0 61.8645 43.2623 -92.8423 0.0 0.0 0.0 0.0 0.0 0.0 97.20536 25.2823 -388.509 58.6712 35.0392 -31.2777 0.0 31.3436 0.0 -75.8272 2.93388 -8.38739 0.0 0.0 0.0 0.0 0.0 0.0 3.7042 -47.217 -2.38198 0.0 60.3104 0.0 -11.2969 -13.3307 1.38044 0.0 -39.5567 0.0 2.89601 -44.7178 -11.4315 0.0 52.0036 0.0 4.21345 15.637121 -3.19987 0.0 -48.432 0.0 
  2.691570129394531 0.182731990814209 7.431129760742188 -26.0865 78.8405 31.7829 10.9567 43.8049 -18.8886 2.95129 -9.66546 11.3988 -52.7044 39.1584 40.4391 152.603 -59.8553 870.178 -94.92933 24.1033 14.1319 -78.2561 36.7566 17.2502 0.0 -5.43349 0.0 61.502 42.6678 -93.2592 0.0 0.0 0.0 0.0 0.0 0.0 97.18777 25.1873 -388.465 58.6913 35.2264 -31.5303 0.0 31.3668 0.0 -75.8334 2.79242 -8.38483 0.0 0.0 0.0 0.0 0.0 0.0 3.60719 -47.1292 -2.63142 0.0 59.3393 0.0 -11.9169 -7.819599 2.85944 0.0 -39.5103 0.0 2.86001 -44.6931 -11.4213 0.0 52.0278 0.0 4.3275 15.64249 -3.29116 0.0 -48.4603 0.0 
  2.690989990234375 0.1852739906311035 7.431119995117188 -25.7843 78.8027 31.5411 11.0536 43.8973 -19.0305 2.8144 -9.59209 11.3253 -52.4215 39.034 40.2651 152.714 -59.844 870.273 -95.11706 24.2621 14.2941 -77.7815 36.6976 16.6803 0.0 -5.23571 0.0 60.7928 42.5704 -92.8472 0.0 0.0 0.0 0.0 0.0 0.0 97.17824 24.9756 -388.331 58.781 35.4222 -31.7364 0.0 31.3392 0.0 -75.8301 2.73478 -8.2349 0.0 0.0 0.0 0.0 0.0 0.0 3.54317 -46.911 -2.83778 0.0 57.8453 0.0 -13.2987 -0.17700005 4.58533 0.0 -40.135002 0.0 2.81916 -44.6505 -11.4149 0.0 52.041 0.0 4.38416 15.620603 -3.36583 0.0 -48.308 0.0 
  2.6902398681640625 0.18792999267578125 7.429979858398437 -25.5287 78.7635 31.3093 11.1002 44.0012 -19.1056 2.6267 -9.48074 11.2767 -51.8422 39.042 39.763 152.666 -59.7159 870.351 -95.49901 24.6566 14.6628 -76.9429 36.5476 16.2152 0.0 -4.84964 0.0 59.6852 42.0842 -92.5915 0.0 0.0 0.0 0.0 0.0 0.0 97.24076 24.6927 -388.168 58.7624 35.5494 -31.9317 0.0 31.4162 0.0 -75.9242 2.75435 -8.12643 0.0 0.0 0.0 0.0 0.0 0.0 3.51941 -46.4896 -3.0615 0.0 55.8011 0.0 -15.0449 7.36311 6.56195 0.0 -33.423798 0.0 2.84079 -44.5902 -11.3575 0.0 52.0035 0.0 4.38975 15.579355 -3.4682 0.0 -48.2209 0.0 
  2.6918798828125 0.1903190040588379 7.427509765625 -25.5435 78.7435 31.2855 11.2177 44.0838 -19.2383 2.31159 -9.32709 11.2408 -51.2451 38.7828 39.3906 153.011 -59.5635 870.648 -96.02948 24.9347 15.1803 -75.9103 36.5563 15.867 0.0 -4.47175 0.0 61.6374 42.3131 -93.7705 0.0 0.0 0.0 0.0 0.0 0.0 97.31018 24.3193 -388.016 58.7129 35.7309 -32.1242 0.0 31.6619 0.0 -76.0395 2.8618 -8.12582 0.0 0.0 0.0 0.0 0.0 0.0 3.50196 -46.0032 -3.24004 0.0 54.3115 0.0 -17.2528 6.89602 6.71427 0.0 -40.691902 0.0 2.89454 -44.5822 -11.2997 0.0 51.9824 0.0 4.22057 15.587408 -3.52504 0.0 -48.153 0.0 
  2.6942401123046875 0.19205799102783203 7.422219848632812 -26.2085 78.6822 31.8948 11.3188 44.1472 -19.3363 2.30219 -9.14996 11.2233 -51.1618 38.5779 39.293 153.651 -59.4107 871.162 -95.84472 24.3515 14.8655 -76.3789 36.8283 16.262 0.0 -4.70082 0.0 62.3053 42.4511 -94.0951 0.0 0.0 0.0 0.0 0.0 0.0 97.0869 24.155 -387.919 58.8155 35.9129 -32.3532 0.0 31.8987 0.0 -76.1894 2.87221 -7.54423 0.0 0.0 0.0 0.0 0.0 0.0 3.57507 -46.2073 -3.45176 0.0 55.0634 0.0 -16.3409 6.64097 5.9737 0.0 -39.8211 0.0 3.05117 -44.6332 -11.2452 0.0 51.9972 0.0 4.31601 15.58567 -3.4955 0.0 -48.2021 0.0 
  2.6910299682617187 0.19632999420166017 7.420880126953125 -26.366 78.7252 32.0799 11.1221 44.321 -19.2735 2.53881 -9.18911 11.057 -51.2835 38.6335 39.2328 153.856 -59.206 871.501 -95.10766 23.7425 14.5247 -77.5155 37.2736 16.4401 0.0 -5.08493 0.0 60.7864 42.8183 -92.5451 0.0 0.0 0.0 0.0 0.0 0.0 96.83913 24.3041 -387.902 58.9095 35.9651 -32.4442 0.0 32.0435 0.0 -76.3844 2.8946 -7.49686 0.0 0.0 0.0 0.0 0.0 0.0 3.51152 -46.3754 -3.49786 0.0 55.3168 0.0 -16.3008 6.38984 6.36855 0.0 -39.7473 0.0 3.08888 -44.7114 -11.1875 0.0 51.9718 0.0 4.36626 15.62552 -3.53115 0.0 -48.2087 0.0 
  2.68760009765625 0.20329599380493163 7.421929931640625 -26.0423 78.7462 31.8144 11.0809 44.6793 -19.3311 2.55604 -9.5467 10.9248 -51.1399 38.8363 39.0306 153.543 -59.2059 871.296 -94.63781 23.7714 14.3234 -78.0168 37.4267 16.9187 0.0 -5.66648 0.0 60.513 42.9193 -92.2204 0.0 0.0 0.0 0.0 0.0 0.0 96.81939 24.5308 -387.937 58.9141 35.7746 -32.4455 0.0 32.3175 0.0 -76.4514 2.66607 -7.19083 0.0 0.0 0.0 0.0 0.0 0.0 3.26083 -46.5336 -3.87111 0.0 55.4761 0.0 -16.5747 6.75198 6.64763 0.0 -38.2589 0.0 3.02033 -44.7053 -11.2112 0.0 51.8947 0.0 4.33344 15.736305 -3.54453 0.0 -48.349 0.0 
  2.6847900390625 0.2051409912109375 7.4224700927734375 -25.9683 78.7369 31.6749 11.0316 44.8375 -19.2799 2.38672 -9.70556 10.9311 -50.8271 39.2378 38.6795 152.813 -59.1897 870.772 -94.42353 24.1205 14.3754 -78.0241 37.3877 17.2217 0.0 -5.64948 0.0 60.9092 42.6134 -92.8747 0.0 0.0 0.0 0.0 0.0 0.0 96.94662 24.6465 -388.06 58.7882 35.6164 -32.248 0.0 32.5346 0.0 -76.4671 2.62183 -7.13842 0.0 0.0 0.0 0.0 0.0 0.0 3.2224 -46.5211 -3.96228 0.0 55.5428 0.0 -16.603 6.6716604 6.82669 0.0 -38.2026 0.0 3.10058 -44.678 -11.1143 0.0 51.8331 0.0 4.2402 15.798808 -3.52805 0.0 -48.4326 0.0 
  2.6823699951171873 0.20512800216674804 7.426630249023438 -25.5947 78.7982 31.2202 10.7982 44.9519 -19.053 2.34659 -9.8013 10.9404 -50.8073 39.5498 38.5511 152.437 -59.1802 870.465 -94.4557 24.3604 14.434 -77.9748 37.3577 17.12 0.0 -5.62903 0.0 61.0359 42.5018 -93.0986 0.0 0.0 0.0 0.0 0.0 0.0 97.09924 24.6178 -388.097 58.5597 35.5311 -32.4015 0.0 32.5291 0.0 -76.6783 2.22653 -6.84134 0.0 0.0 0.0 0.0 0.0 0.0 3.13986 -46.3377 -4.03164 0.0 55.322 0.0 -16.6722 6.4842997 6.95279 0.0 -37.922302 0.0 3.08614 -44.6407 -11.0568 0.0 51.7488 0.0 4.17574 15.831983 -3.47243 0.0 -48.4086 0.0 
  2.6800601196289064 0.20233600616455077 7.430120239257812 -25.6762 78.8753 31.2006 10.4188 44.9792 -18.6935 2.56335 -9.8386 10.9428 -50.9919 39.7759 38.6598 152.234 -59.1654 870.219 -94.55342 24.4905 14.4551 -78.0344 37.2094 17.4205 0.0 -5.472 0.0 61.1511 42.2169 -93.5145 0.0 0.0 0.0 0.0 0.0 0.0 97.06254 24.6812 -388.19 58.4234 35.4317 -32.338 0.0 32.549 0.0 -76.706 2.23126 -6.79157 0.0 0.0 0.0 0.0 0.0 0.0 3.13382 -46.1937 -4.10321 0.0 55.0349 0.0 -16.8685 6.2712603 7.05439 0.0 -37.8587 0.0 3.14673 -44.6597 -10.992 0.0 51.6934 0.0 4.13145 15.835036 -3.4166 0.0 -48.4029 0.0 
  2.679809875488281 0.19853500366210938 7.43333984375 -26.1286 78.951 31.6096 10.2409 44.9288 -18.5059 2.70725 -9.83387 10.9706 -51.0931 39.8357 38.782 152.078 -59.2096 870.035 -94.63188 24.4892 14.4683 -78.1152 37.1733 17.5856 0.0 -5.38505 0.0 60.8835 42.4674 -93.0236 0.0 0.0 0.0 0.0 0.0 0.0 97.02251 24.6585 -388.267 58.3349 35.3874 -32.2595 0.0 32.5963 0.0 -76.6433 2.28573 -6.6566 0.0 0.0 0.0 0.0 0.0 0.0 3.06687 -46.1775 -4.33729 0.0 54.8943 0.0 -16.9946 6.1286297 7.21112 0.0 -37.966 0.0 3.17912 -44.705 -11.0427 0.0 51.6475 0.0 4.11083 15.841745 -3.35415 0.0 -48.4305 0.0 
  2.6797698974609374 0.19528799057006835 7.43625 -26.4701 78.9585 31.9776 10.24 44.9043 -18.4819 2.70578 -9.81537 11.0009 -50.9435 39.8784 38.7478 151.841 -59.2645 869.752 -94.66171 24.4328 14.4011 -78.1999 37.1559 17.7295 0.0 -5.3457 0.0 60.3233 42.7415 -92.2803 0.0 0.0 0.0 0.0 0.0 0.0 97.07861 24.5838 -388.307 58.2307 35.3443 -32.0814 0.0 32.6555 0.0 -76.5662 2.3157 -6.43239 0.0 0.0 0.0 0.0 0.0 0.0 2.90886 -46.2232 -4.76884 0.0 54.9206 0.0 -17.1223 6.17603 7.35669 0.0 -38.1227 0.0 3.15772 -44.6775 -11.1903 0.0 51.6012 0.0 4.07162 15.830732 -3.29506 0.0 -48.4303 0.0 
